<svg version="1.2" xmlns="http://www.w3.org/2000/svg" viewBox="0 0 1464 566" width="500" height="193">
	<title>Consorcio_Iveco_CMYK-ai</title>
	<style>
		.s0 { fill: #231f20 } 
		.s1 { fill: #009ee1 } 
	</style>
	<g id="Camada 1">
		<g id="&lt;Group&gt;">
			<path id="O 00000055685775880974901630000004690611878896885950 " fill-rule="evenodd" class="s0" d="m1185.1 491.5c-40.2 0-72.8-26.9-72.8-60.1v-85.6c0-33.2 32.6-60.1 72.8-60.1h134.2c40.2 0 72.8 26.9 72.8 60.1v85.6c0 33.2-32.6 60.1-72.8 60.1zm-12.5-156.4c-0.8 0-1.5 0.7-1.5 1.5v103.8c0 0.9 0.7 1.5 1.5 1.5h158.3c0.8 0 1.5-0.6 1.5-1.5v-103.8c0-0.8-0.7-1.5-1.5-1.5z"/>
			<path id="E 00000137115514352275945020000005906163861673694648 " class="s0" d="m759.6 491.5h-167.2c-40.2 0-72.8-26.9-72.8-60.1v-85.6c0-33.2 32.6-60.2 72.8-60.1h166.4 1.2c2.6 0 4.6 2 4.6 4.6v0.2 40c0 2.6-2 4.7-4.6 4.7h-0.4-179.5c-0.9 0-1.7 0.7-1.7 1.7v103.3c0 0.9 0.8 1.7 1.7 1.7h179.4 0.5c2.6 0 4.6 2.1 4.6 4.6v0.1 40.3c0 2.6-2 4.6-4.6 4.6z"/>
			<path id="E 00000107550176270271035350000005492326409563318178 " class="s0" d="m1059 491.5h-167.3c-40.1 0-72.8-26.9-72.8-60.1v-85.6c0-33.2 32.7-60.2 72.8-60.1h166.5 1.2c2.5 0 4.6 2 4.6 4.6v0.2 40c0 2.6-2.1 4.7-4.6 4.7h-0.4-179.5c-1 0-1.7 0.7-1.7 1.7v103.3c0 0.9 0.7 1.7 1.7 1.7h179.3 0.6c2.5 0 4.6 2.1 4.6 4.6v0.1 40.3c0 2.6-2.1 4.6-4.6 4.6z"/>
			<path id="flashOFlight 00000036955293368090104210000000780957504511583409 " class="s1" d="m761.2 411.6h-151.1c-1 0-1.9-0.9-1.9-2v-41.6c0-1.1 0.9-2 1.9-2h151.1c1.1 0 2 0.9 2 2v41.6c0 1.1-0.9 2-2 2z"/>
			<path id="V 00000095320068858357072340000004500701295467855794 " class="s0" d="m330 499.3c-23.1 0-44.1-10.5-54.7-27.4l-0.7-1-104.2-179.1c-0.7-1.3-0.6-2.7 0.1-3.9 0.8-1.4 2.4-2.2 4.1-2.2h55c1.8 0 3.4 0.9 4.2 2.3l94.1 161.1c0.2 0.2 0.8 0.7 2.2 0.7 1.5 0 1.9-0.7 2.1-1l102.2-161c0.8-1.3 2.4-2.1 4.1-2.1h55.8c1.8 0 3.4 0.9 4.2 2.3 0.7 1.2 0.7 2.7 0 3.9l-113.4 179.3c-10.4 17.1-31.4 27.9-54.6 28.1z"/>
			<path id="I 00000106864169254717383900000010675147445198405787 " class="s0" d="m128.3 491.5h-52.6c-1.8 0-3.4-1.5-3.4-3.3v-199.2c0-1.8 1.6-3.3 3.4-3.3h52.6c1.9 0 3.4 1.5 3.4 3.3v199.2c0 1.8-1.5 3.3-3.4 3.3z"/>
			<g id="&lt;Group&gt;">
				<path id="&lt;Compound Path&gt;" class="s0" d="m198.5 210.2h-84.3c-27.2 0-41.9-15.8-41.9-37.9v-34.8c0-22.1 14.7-37.9 41.9-37.9h84.3c1.5 0 2.6 1 2.6 2.5v21.7c0 1.4-1.1 2.5-2.6 2.5h-93.5c-0.4 0-0.8 0.3-0.8 0.8v55.6c0 0.5 0.4 0.8 0.8 0.8h93.5c1.5 0 2.6 1.1 2.6 2.5v21.7c0 1.5-1.1 2.5-2.6 2.5z"/>
				<path id="&lt;Compound Path&gt;" fill-rule="evenodd" class="s0" d="m220.1 137.5c0-22.1 14.7-37.9 41.9-37.9h67.6c27.1 0 41.8 15.8 41.8 37.9v34.8c0 22.1-14.7 37.9-41.8 37.9h-67.6c-27.2 0-41.9-15.8-41.9-37.9zm118.6-11.2h-85.9c-0.5 0-0.8 0.3-0.8 0.8v55.6c0 0.4 0.3 0.7 0.8 0.7h85.9c0.5 0 0.8-0.3 0.8-0.7v-55.6c0-0.5-0.3-0.8-0.8-0.8z"/>
				<path id="&lt;Compound Path&gt;" class="s0" d="m530.6 102.1v80.6c0 15.8-6.5 31.6-25.1 31.6-11.1 0-20.3-9.2-27.2-17.4l-55.6-64.9c-0.3-0.5-0.8-0.9-1.4-0.9-1 0-1.3 1.2-1.3 2.3v74.3c0 1.4-0.9 2.5-2.5 2.5h-24.5c-1.6 0-2.5-1.1-2.5-2.5v-80.6c0-15.8 6.4-31.6 25.1-31.6 11 0 20.2 9.2 27.1 17.4l55.6 64.9c0.4 0.5 0.8 1 1.5 1 0.8 0 1.2-1.3 1.2-2.4v-74.3c0-1.4 1-2.5 2.6-2.5h24.4c1.5 0 2.6 1.1 2.6 2.5z"/>
				<path id="&lt;Compound Path&gt;" class="s0" d="m549.5 129.8c0-19.4 15.3-30.2 36.8-30.2h93.1c1.5 0 2.5 1.1 2.5 2.5v21.7c0 1.4-1 2.5-2.5 2.5h-97.3c-0.5 0-0.8 0.3-0.8 0.8v14.7c0 0.5 0.3 0.8 0.8 0.8h70.3c21.4 0 36.9 10.7 36.9 30.2v7.4c0 19.3-15.5 30-36.9 30h-96.4c-1.6 0-2.5-1.1-2.5-2.5v-21.7c0-1.4 0.9-2.5 2.5-2.5h100.6c0.5 0 0.8-0.3 0.8-0.8v-14.7c0-0.5-0.3-0.8-0.8-0.8h-70.3c-21.5 0-36.8-10.7-36.8-30.1z"/>
				<path id="&lt;Compound Path&gt;" fill-rule="evenodd" class="s0" d="m859.6 137.5v34.8c0 22.1-14.7 37.9-41.9 37.9h-67.6c-27.2 0-41.8-15.8-41.8-37.9v-34.8c0-22.1 14.6-37.9 41.8-37.9h67.6c27.2 0 41.9 15.8 41.9 37.9zm-31.9-10.4c0-0.5-0.3-0.8-0.8-0.8h-85.9c-0.5 0-0.8 0.3-0.8 0.8v55.6c0 0.5 0.3 0.8 0.8 0.8h85.9c0.5 0 0.8-0.3 0.8-0.8zm-55-37.7c-1.1 0-1.9-0.8-1.9-1.8 0-0.5 0.2-0.9 0.6-1.4l13-17.1c1.3-1.7 3.5-3.3 6.3-3.3h31.4c1.3 0 2.4 0.8 2.4 1.9 0 1-0.6 1.7-1.3 2.2l-24.1 17.1c-2.2 1.7-4.6 2.4-8.2 2.4h-18.2z"/>
				<path id="&lt;Compound Path&gt;" fill-rule="evenodd" class="s0" d="m878.6 101c0-0.3 1-1.4 2.6-1.4h105c21.5 0 35.7 12 35.7 31.5v15.9c0 17.1-11.1 29.2-30.7 31.1-0.9 0-1.7 0.5-1.7 1 0 0.4 0.2 0.8 0.3 0.9l25.6 26.1c0.6 0.6 1 1.1 1 1.9 0 1.1-1 2.2-2.6 2.2h-29.7c-1.4 0-2.2-0.6-3-1.6l-25.6-28.3c-1.1-1.2-1.7-2-3.9-2h-40.4c-0.5 0-0.8 0.5-0.8 0.9v28.5c0 1.4-1 2.5-2.6 2.5h-26.7c-1.5 0-2.5-1.1-2.5-3.6v-105.6zm110.6 24.4h-78c-0.5 0-0.8 0.3-0.8 0.8v25.7c0 0.5 0.3 0.8 0.8 0.8h78c0.5 0 0.8-0.3 0.8-0.8v-25.7c0-0.5-0.3-0.8-0.8-0.8z"/>
				<path id="&lt;Compound Path&gt;" class="s0" d="m1167.2 210.2h-84.4c-27.2 0-41.8-15.8-41.8-37.9v-34.8c0-22.1 14.6-37.9 41.8-37.9h84.4c1.4 0 2.5 1 2.5 2.5v21.7c0 1.4-1.1 2.5-2.5 2.5h-93.5c-0.5 0-0.8 0.3-0.8 0.8v55.6c0 0.5 0.3 0.8 0.8 0.8h93.5c1.4 0 2.5 1.1 2.5 2.5v21.7c0 1.5-1.1 2.5-2.5 2.5z"/>
				<path id="&lt;Compound Path&gt;" class="s0" d="m1220.5 207.7c0 1.4-1.1 2.5-2.6 2.5h-26.7c-1.5 0-2.5-1.1-2.5-2.5v-105.6c0-1.4 1-2.5 2.5-2.5h26.7c1.5 0 2.6 1.1 2.6 2.5z"/>
				<path id="&lt;Compound Path&gt;" fill-rule="evenodd" class="s0" d="m1239.5 137.5c0-22.1 14.7-37.9 41.9-37.9h67.6c27.1 0 41.8 15.8 41.8 37.9v34.8c0 22.1-14.7 37.9-41.8 37.9h-67.6c-27.2 0-41.9-15.8-41.9-37.9zm118.6-11.2h-85.9c-0.5 0-0.8 0.3-0.8 0.8v55.6c0 0.4 0.3 0.7 0.8 0.7h85.9c0.5 0 0.8-0.3 0.8-0.7v-55.6c0-0.5-0.3-0.8-0.8-0.8z"/>
			</g>
		</g>
	</g>
</svg>