<?xml version="1.0" encoding="utf-8"?>
<!-- Generator: Adobe Illustrator 25.2.0, SVG Export Plug-In . SVG Version: 6.00 Build 0)  -->
<svg version="1.1" id="Camada_1" xmlns="http://www.w3.org/2000/svg" xmlns:xlink="http://www.w3.org/1999/xlink" x="0px" y="0px"
	 viewBox="0 0 109.68 543.36" style="enable-background:new 0 0 109.68 543.36;" xml:space="preserve">
<style type="text/css">
	.st0{fill:none;stroke:#CE3217;stroke-width:2.0002;stroke-miterlimit:10.0012;}
	.st1{fill:#FFFFFF;}
	.st2{fill:none;}
	.st3{fill:#D1D3D4;}
	.st4{fill:none;stroke:#FFFFFF;stroke-miterlimit:10;}
	.st5{fill:#CE3217;}
	.st6{fill:#262626;}
	.st7{fill:#E30613;}
	.st8{fill:#B3342A;}
	.st9{fill:none;stroke:#FFFFFF;}
	.st10{fill:none;stroke:#D1D2D3;stroke-miterlimit:10;}
	.st11{fill:none;stroke:#B3342A;stroke-miterlimit:10;}
	.st12{fill:none;stroke:#5A5A5C;stroke-width:2;stroke-miterlimit:10;}
</style>
<g>
	<g id="Polígono_5_1_" transform="translate(300.098) rotate(7)">
		<path class="st2" d="M-269.76,249.82l-21.45-174.7l-0.62-5.08L-292.7,63 M-293.32,57.91l77.53,134.26
			c72.46,125.48,70.63,265.28,17.05,380.27 M-269.13,254.9l16.31,28.25c9.73,16.85,18.33,34.37,25.56,52.08
			c7.06,17.29,12.96,35.15,17.56,53.08c8.93,34.88,13.15,70.8,12.51,106.76c-0.46,26.24-3.48,52.47-9.03,78.28l-23.46,2.88
			 M-229.68,576.24l-39.46-321.34 M-269.13,675.21c0.05-0.07,0.12-0.13,0.17-0.19c0.02-0.01,0.04-0.03,0.05-0.06
			c0.02-0.04,0.06-0.08,0.09-0.11c0.03-0.02,0.06-0.07,0.1-0.1c0.03-0.02,0.06-0.07,0.1-0.1 M-269.13,675.21
			c0.05-0.07,0.12-0.13,0.17-0.19c0.02-0.01,0.04-0.03,0.05-0.06c0.02-0.04,0.06-0.08,0.09-0.11c0.03-0.02,0.06-0.07,0.1-0.1
			c0.03-0.02,0.06-0.07,0.1-0.1"/>
		<path class="st3" d="M-220.94,192.81l-70.89-122.77l-6.64-11.5l0.62,5.08l6.64,11.5l68.54,118.69
			c9.73,16.85,18.33,34.37,25.56,52.08c7.06,17.29,12.96,35.15,17.56,53.08c8.93,34.88,13.15,70.8,12.51,106.76
			c-0.61,34.85-5.75,69.69-15.28,103.55c-5.38,19.1-12.14,37.82-20.21,56c-1.2,2.71-2.43,5.4-3.68,8.07l2.32-0.29
			C-150.32,458.09-148.48,318.29-220.94,192.81z"/>
	</g>
	<g id="Polígono_6_1_" transform="translate(254.098 85) rotate(7)">
		<path class="st2" d="M-233.83,164.93l16.31,28.25c9.73,16.85,18.33,34.37,25.56,52.08c7.06,17.29,12.96,35.15,17.56,53.08
			c8.93,34.88,13.15,70.8,12.51,106.76c-0.46,26.24-3.48,52.47-9.03,78.28l-23.46,2.88 M-171.3,494.1c0.87-3.64,1.7-7.3,2.48-10.96
			c0.56-2.6,1.08-5.2,1.59-7.81c17.71-91.83,4.47-191.31-48.56-283.14l-18.67-32.33 M-194.38,486.27l-39.46-321.34"/>
		<path class="st3" d="M-215.79,192.18l-18.67-32.33l0.62,5.08l16.31,28.25c9.73,16.85,18.33,34.37,25.56,52.08
			c7.06,17.29,12.96,35.15,17.56,53.08c8.93,34.88,13.15,70.8,12.51,106.76c-0.46,26.24-3.48,52.47-9.03,78.28l2.09-0.26
			c0.56-2.6,1.08-5.2,1.59-7.81C-149.52,383.49-162.76,284.01-215.79,192.18z"/>
	</g>
</g>
</svg>
