<?xml version="1.0" encoding="utf-8"?>
<!-- Generator: Adobe Illustrator 25.2.0, SVG Export Plug-In . SVG Version: 6.00 Build 0)  -->
<svg version="1.1" id="Camada_1" xmlns="http://www.w3.org/2000/svg" xmlns:xlink="http://www.w3.org/1999/xlink" x="0px" y="0px"
	 viewBox="0 0 126.34 650" style="enable-background:new 0 0 126.34 650;" xml:space="preserve">
<style type="text/css">
	.st0{fill:none;stroke:#CE3217;stroke-width:2.0002;stroke-miterlimit:10.0012;}
	.st1{fill:#FFFFFF;}
	.st2{fill:none;}
	.st3{fill:#D1D3D4;}
	.st4{fill:none;stroke:#FFFFFF;stroke-miterlimit:10;}
	.st5{fill:#CE3217;}
	.st6{fill:#262626;}
	.st7{fill:#E30613;}
	.st8{fill:#B3342A;}
	.st9{fill:none;stroke:#FFFFFF;}
	.st10{fill:none;stroke:#D1D2D3;stroke-miterlimit:10;}
	.st11{fill:none;stroke:#B3342A;stroke-miterlimit:10;}
	.st12{fill:none;stroke:#5A5A5C;stroke-width:2;stroke-miterlimit:10;}
</style>
<g id="Polígono_10_1_" transform="translate(300.098) rotate(7)">
	<path class="st2" d="M-116.69,475.4c0,0,0-0.01-0.01-0.01c-10.53-9.33-20.17-19.55-28.84-30.51c-2.71-3.43-5.32-6.92-7.85-10.48
		c-1-1.43-1.99-2.87-2.98-4.31c-1.47-2.18-2.89-4.37-4.28-6.59c-0.46-0.74-0.92-1.48-1.38-2.22c-0.91-1.49-1.81-2.98-2.69-4.5
		c-0.88-1.5-1.74-3.02-2.59-4.55c-0.84-1.52-1.68-3.06-2.49-4.6c-1.22-2.32-2.4-4.65-3.55-7.01c-1.14-2.35-2.25-4.72-3.32-7.12
		c-3.57-7.96-6.7-16.13-9.37-24.47c-0.53-1.67-1.04-3.34-1.55-5.02c-11.42-38.39-13.29-79.99-3.44-121.06
		c0.38-1.61,0.78-3.21,1.2-4.81c2.04-7.77,4.49-15.5,7.4-23.2c4.59-12.2,10.28-24.28,17.12-36.14l10.07-17.43L-116.69,475.4z"/>
	<path class="st5" d="M-189.05,239.71c0.1-0.41,0.2-0.8,0.33-1.21c0.41-1.61,0.84-3.22,1.32-4.82c2.34-8.26,5.16-16.44,8.43-24.43
		c2.67-6.54,5.67-13.06,8.97-19.45c0.46-0.89,0.93-1.8,1.41-2.69c1.37-2.61,2.8-5.18,4.28-7.74l9.31-16.11l-0.23-1.89l-10.06,17.43
		c-0.43,0.75-0.86,1.49-1.28,2.23c-0.14,0.26-0.28,0.51-0.43,0.77c-0.53,0.95-1.06,1.9-1.57,2.85c0,0,0,0,0,0.01
		c-0.24,0.44-0.49,0.89-0.72,1.33c-0.24,0.45-0.46,0.89-0.7,1.35l-0.01,0.01c-1,1.9-1.97,3.8-2.92,5.71
		c-0.94,1.92-1.86,3.82-2.75,5.75c-0.02,0.06-0.05,0.14-0.1,0.2c-0.4,0.9-0.81,1.78-1.21,2.68c-0.43,0.96-0.84,1.93-1.26,2.88
		c-0.83,1.94-1.63,3.86-2.41,5.8c-0.61,1.53-1.2,3.05-1.78,4.57c-0.36,0.96-0.71,1.92-1.07,2.89c-0.69,1.92-1.36,3.85-2.01,5.79
		c-0.31,0.97-0.63,1.93-0.94,2.9c-0.3,0.96-0.61,1.94-0.9,2.9c-0.87,2.9-1.69,5.79-2.45,8.68c-0.43,1.61-0.82,3.21-1.21,4.82
		c-1.03,4.32-1.94,8.64-2.72,12.96c0,0.01,0,0.02-0.01,0.02c-0.11,0.65-0.23,1.29-0.34,1.94c-0.11,0.65-0.22,1.3-0.33,1.94
		c-0.1,0.65-0.2,1.29-0.31,1.94c-0.1,0.65-0.2,1.29-0.3,1.94c-0.12,0.87-0.24,1.73-0.36,2.59c0,0.01-0.01,0.02-0.01,0.02
		c-0.22,1.73-0.43,3.45-0.63,5.16c0,0.01,0,0.02-0.01,0.02c-0.5,4.53-0.86,9.07-1.1,13.6c-0.05,1.12-0.11,2.26-0.15,3.38
		c-0.03,1.13-0.06,2.26-0.1,3.39c-0.02,1.13-0.03,2.26-0.05,3.38c-0.01,1.41-0.01,2.82,0,4.22c0.02,1.41,0.04,2.82,0.08,4.21
		c0.08,2.81,0.21,5.61,0.4,8.39c0.17,2.51,0.36,5.01,0.61,7.52c0.08,0.84,0.16,1.66,0.26,2.5c0.25,2.3,0.53,4.59,0.84,6.88
		c0.14,1,0.29,2,0.44,3c0.02,0.18,0.05,0.37,0.08,0.54c0.02,0.16,0.05,0.31,0.08,0.46c0.15,0.96,0.31,1.92,0.46,2.87
		c0.03,0.15,0.05,0.31,0.08,0.45c0.17,0.97,0.34,1.92,0.52,2.89c0.12,0.66,0.24,1.33,0.38,2c0.09,0.46,0.17,0.93,0.27,1.39
		c0.16,0.79,0.31,1.56,0.48,2.35c0.17,0.82,0.34,1.62,0.52,2.41c0.36,1.61,0.73,3.22,1.11,4.81c0.23,0.95,0.46,1.89,0.7,2.83
		c0,0.03,0.02,0.07,0.02,0.1c0.16,0.62,0.32,1.24,0.49,1.85c0.1,0.4,0.21,0.79,0.32,1.19c0.26,1,0.54,1.99,0.82,2.97
		c0.28,0.98,0.56,1.98,0.86,2.96c0.51,1.68,1.03,3.35,1.55,5.02c0.67,2.08,1.37,4.15,2.09,6.22c1.45,4.12,3.02,8.2,4.69,12.24
		c0.84,2.01,1.7,4.01,2.59,6.01c1.07,2.4,2.18,4.77,3.32,7.12c1.15,2.36,2.33,4.69,3.55,7.01c0.81,1.54,1.65,3.08,2.49,4.6
		c0.85,1.53,1.71,3.04,2.59,4.55c0.88,1.51,1.78,3.01,2.69,4.5c0.46,0.74,0.92,1.48,1.38,2.22c1.39,2.22,2.83,4.41,4.28,6.59
		c0.98,1.44,1.98,2.88,2.98,4.31c2.52,3.56,5.14,7.06,7.85,10.48c1.63,2.06,3.29,4.09,4.98,6.09c0.57,0.67,1.14,1.33,1.71,2
		c0.86,0.99,1.72,1.97,2.6,2.96c0.65,0.74,1.32,1.46,1.98,2.18c0.67,0.72,1.34,1.45,2.02,2.17c0.67,0.71,1.35,1.44,2.04,2.15
		c0.68,0.71,1.36,1.41,2.06,2.11c0.93,0.93,1.86,1.86,2.8,2.78c0.94,0.91,1.89,1.82,2.83,2.73c0.48,0.46,0.96,0.91,1.45,1.35
		c0.48,0.45,0.96,0.89,1.44,1.33c0.98,0.89,1.95,1.78,2.94,2.65c0.01,0,0.01,0.01,0.01,0.01l-0.21-1.74
		c-3.96-3.54-7.81-7.23-11.53-11.06c-13.85-14.21-25.93-30.16-35.9-47.44c-9.97-17.26-17.74-35.7-23.13-54.81
		c-5.47-19.42-8.42-39.41-8.76-59.4C-196.59,280.33-194.18,259.72-189.05,239.71z"/>
</g>
<g id="Polígono_11_1_" transform="translate(254.098 85) rotate(7)">
	<path class="st2" d="M-72.34,459.19c-98.7-63.05-143.17-196.3-82.21-311.01c0.01-0.02,0.02-0.03,0.02-0.04
		c0.78-1.48,1.58-2.94,2.41-4.42c0.6-1.09,1.21-2.18,1.85-3.27l31.99-55.39L-72.34,459.19z"/>
	<path class="st3" d="M-174,201.35c2.64-10.28,6.02-20.53,10.07-30.44c2.45-6.03,5.19-12.02,8.19-17.92c0-0.01,0.01-0.02,0.02-0.03
		c0.74-1.48,1.51-2.96,2.3-4.42c1.33-2.52,2.73-5.03,4.16-7.51l15.04-26.04l1.3-2.24l14.9-25.8l-0.23-1.89l-14.77,25.58l-1.3,2.26
		l-15.91,27.55c-0.63,1.09-1.24,2.18-1.85,3.27c-0.83,1.47-1.63,2.94-2.41,4.42c-0.01,0.01-0.02,0.02-0.02,0.04
		c-60.96,114.71-16.49,247.96,82.21,311.01l-0.18-1.48c-14.77-9.53-28.49-20.76-40.87-33.46c-13.84-14.21-25.93-30.16-35.9-47.44
		c-9.97-17.26-17.74-35.7-23.13-54.8c-5.47-19.43-8.42-39.42-8.77-59.41C-181.54,241.97-179.12,221.36-174,201.35z"/>
</g>
</svg>
