<svg xmlns="http://www.w3.org/2000/svg" width="344.449" height="24.73" viewBox="0 0 344.449 24.73">
  <g id="Grupo_23" data-name="Grupo 23" transform="translate(-15.882 -25.701)">
    <path id="Caminho_13" data-name="Caminho 13" d="M216.106,49.81l11.17-13.283L238.5,49.81Zm12.032-14.04a1.13,1.13,0,0,0-1.724,0L215.2,49.1a1.128,1.128,0,0,0,.862,1.855h22.47a1.128,1.128,0,0,0,.86-1.857Z" transform="translate(-104.931 -5.098)" fill="#d03025"/>
    <path id="Caminho_14" data-name="Caminho 14" d="M156.176,49.261V26.871l13.283,11.172Zm.707-23.293a1.1,1.1,0,0,0-.719-.266,1.132,1.132,0,0,0-1.133,1.128V49.3a1.134,1.134,0,0,0,1.133,1.13,1.105,1.105,0,0,0,.722-.268L170.216,38.9a1.118,1.118,0,0,0,.4-.862,1.135,1.135,0,0,0-.4-.862Z" transform="translate(-73.352 -0.001)" fill="#d1d3d4"/>
    <path id="Caminho_15" data-name="Caminho 15" d="M30.323,49.259,17.04,38.089,30.323,26.871ZM30.335,25.7a1.11,1.11,0,0,0-.722.268L16.283,37.227a1.125,1.125,0,0,0,0,1.724l13.33,11.213a1.114,1.114,0,0,0,.719.266A1.132,1.132,0,0,0,31.468,49.3V26.831a1.1,1.1,0,0,0-.348-.817,1.146,1.146,0,0,0-.784-.313" transform="translate(0)" fill="#d1d3d4"/>
    <path id="Caminho_16" data-name="Caminho 16" d="M88.991,35.77a1.13,1.13,0,0,0-1.724,0L76.056,49.1a1.128,1.128,0,0,0,.862,1.855h22.47a1.128,1.128,0,0,0,.86-1.857Z" transform="translate(-31.58 -5.098)" fill="#d1d3d4"/>
    <path id="Caminho_17" data-name="Caminho 17" d="M308.618,49.334s0,.005,0,.005l-.01.007s-.005,0-.005,0L295.267,38.129l0,0v-.01a0,0,0,0,0,0,0L308.6,26.856s0,0,.005-.005l.01.008s0,0,0,.005ZM308.6,25.763a1.076,1.076,0,0,0-.7.261L294.566,37.281a1.1,1.1,0,0,0,0,1.682L307.9,50.173a1.079,1.079,0,0,0,.7.261,1.1,1.1,0,0,0,1.105-1.1V26.863a1.1,1.1,0,0,0-1.105-1.1" transform="translate(-146.703 -0.033)" fill="#d1d3d4"/>
    <path id="Caminho_18" data-name="Caminho 18" d="M586.786,49.259,573.5,38.089l13.286-11.218ZM586.8,25.7a1.111,1.111,0,0,0-.722.268L572.746,37.227a1.125,1.125,0,0,0,0,1.724l13.331,11.213a1.115,1.115,0,0,0,.719.266,1.134,1.134,0,0,0,1.133-1.128V26.831a1.1,1.1,0,0,0-.349-.817,1.145,1.145,0,0,0-.784-.313" transform="translate(-293.34)" fill="#d1d3d4"/>
    <path id="Caminho_19" data-name="Caminho 19" d="M712.515,49.261V26.871L725.8,38.043Zm.707-23.293a1.1,1.1,0,0,0-.719-.266,1.134,1.134,0,0,0-1.135,1.128V49.3a1.136,1.136,0,0,0,1.135,1.13,1.109,1.109,0,0,0,.722-.268l13.33-11.26a1.118,1.118,0,0,0,.4-.862,1.137,1.137,0,0,0-.4-.862Z" transform="translate(-366.625 -0.001)" fill="#d1d3d4"/>
    <path id="Caminho_20" data-name="Caminho 20" d="M655.828,49.869H633.345a.02.02,0,0,1,0-.01.008.008,0,0,1,0-.005l11.213-13.333a0,0,0,0,0,0,0h.01l0,0,11.26,13.333a.008.008,0,0,1,0,.005.02.02,0,0,1-.005.01M645.4,35.82a1.1,1.1,0,0,0-1.679,0L632.51,49.153a1.1,1.1,0,0,0,.842,1.807H655.82a1.1,1.1,0,0,0,.84-1.807Z" transform="translate(-324.919 -5.129)" fill="#d03025"/>
    <path id="Caminho_21" data-name="Caminho 21" d="M494.275,49.81l11.17-13.283,11.22,13.283Zm12.032-14.04a1.13,1.13,0,0,0-1.724,0L493.373,49.1a1.128,1.128,0,0,0,.862,1.855H516.7a1.128,1.128,0,0,0,.86-1.857Z" transform="translate(-251.568 -5.098)" fill="#d1d3d4"/>
    <path id="Caminho_22" data-name="Caminho 22" d="M355.129,49.81,366.3,36.527l11.22,13.283Zm12.032-14.04a1.13,1.13,0,0,0-1.724,0L354.227,49.1a1.128,1.128,0,0,0,.862,1.855H377.56a1.128,1.128,0,0,0,.86-1.857Z" transform="translate(-178.218 -5.098)" fill="#d1d3d4"/>
    <path id="Caminho_23" data-name="Caminho 23" d="M435.052,25.969a1.128,1.128,0,0,0-1.852.862V49.3a1.117,1.117,0,0,0,.652,1.022,1.115,1.115,0,0,0,1.2-.16l13.33-11.26a1.125,1.125,0,0,0,0-1.722Z" transform="translate(-219.989 -0.001)" fill="#d1d3d4"/>
  </g>
</svg>
