<svg width="1278" height="552" viewBox="0 0 1278 552" fill="none" xmlns="http://www.w3.org/2000/svg">
<path fill-rule="evenodd" clip-rule="evenodd" d="M213.327 73.9187C221.56 73.9187 228.248 67.2288 228.248 58.9593C228.248 50.6899 221.56 44 213.327 44C205.094 44 198.406 50.6899 198.406 58.9593C198.406 67.2288 205.094 73.9187 213.327 73.9187ZM216 77.7309C225.184 76.4295 232.248 68.521 232.248 58.9593C232.248 48.4884 223.776 40 213.327 40C202.877 40 194.406 48.4884 194.406 58.9593C194.406 68.9834 202.169 77.1905 212 77.8728V155.506C134.429 156.983 72 220.455 72 298.537C72 377.545 135.919 441.594 214.767 441.594C293.615 441.594 357.533 377.545 357.533 298.537C357.533 219.941 294.28 156.149 216 155.485V77.7309ZM214.767 421.594C282.531 421.594 337.533 366.537 337.533 298.537C337.533 230.536 282.531 175.48 214.767 175.48C147.003 175.48 92 230.536 92 298.537C92 366.537 147.003 421.594 214.767 421.594Z" fill="#B3342B"/>
<path d="M225.284 320.423H153.041V324.444C153.041 326.666 154.837 328.466 157.054 328.466H221.27C223.488 328.466 225.284 326.666 225.284 324.444V320.423Z" fill="url(#paint0_linear_18_83)"/>
<path d="M225.284 320.423H153.041V282.217L189.162 248.033L225.284 282.217V320.423Z" fill="url(#paint1_linear_18_83)"/>
<path d="M167.088 292.271H187.155C188.263 292.271 189.162 293.172 189.162 294.282V328.466H165.081V294.282C165.081 293.172 165.98 292.271 167.088 292.271Z" fill="#DE490D"/>
<path opacity="0.05" d="M189.162 250.043C188.211 250.043 187.26 250.381 186.501 251.055L175.747 260.729L153.041 282.217V293.055L189.162 260.958L225.284 293.055V282.217L202.577 260.729L191.823 251.055C191.065 250.381 190.114 250.043 189.162 250.043Z" fill="black"/>
<path opacity="0.07" d="M189.162 248.033C188.211 248.033 187.26 248.368 186.501 249.038L175.747 258.658L153.041 280.023V290.799L189.162 258.885L225.284 290.799V280.023L202.577 258.658L191.823 249.038C191.065 248.368 190.114 248.033 189.162 248.033Z" fill="black"/>
<path d="M230.291 281.225L191.823 247.033C191.065 246.359 190.114 246.022 189.162 246.022C188.211 246.022 187.26 246.359 186.501 247.033L148.034 281.225C147.191 281.977 147.133 283.276 147.905 284.101L151.188 287.61C151.929 288.402 153.163 288.462 153.978 287.745L189.162 256.937L224.347 287.747C225.16 288.462 226.396 288.404 227.136 287.612L230.419 284.103C231.192 283.276 231.134 281.977 230.291 281.225Z" fill="url(#paint2_linear_18_83)"/>
<path d="M199.196 292.271H211.237C212.344 292.271 213.243 293.172 213.243 294.282V306.347C213.243 307.457 212.344 308.358 211.237 308.358H199.196C198.088 308.358 197.189 307.457 197.189 306.347V294.282C197.189 293.172 198.088 292.271 199.196 292.271Z" fill="url(#paint3_linear_18_83)"/>
<path d="M277.437 320.854L276.886 328.179H271.726V331.841H201.203C198.348 331.841 196.043 329.387 196.043 326.348C196.043 322.685 198.623 314.902 203.783 308.034C208.943 301.167 216.684 295.215 227.004 295.215H242.88C245.598 295.215 248.144 296.589 249.761 298.878C249.898 299.079 255.747 307.119 255.747 307.119C256.056 307.65 256.607 307.98 257.192 307.98H257.966C269.765 307.98 273.876 311.441 275.751 315.396C276.611 317.209 276.99 319.132 277.437 320.854Z" fill="#58585A"/>
<path d="M214.104 313.528C208.178 313.528 203.088 317.288 200.794 322.685C200.625 323.084 199.483 326.348 196.043 326.348C196.043 329.382 198.353 331.841 201.203 331.841H204.643H221.844H228.724V329.094C228.724 320.498 222.178 313.528 214.104 313.528Z" fill="#979799"/>
<path d="M223.564 329.094C223.564 334.658 219.329 339.167 214.104 339.167C208.878 339.167 204.643 334.658 204.643 329.094C204.643 323.531 208.878 319.022 214.104 319.022C219.329 319.022 223.564 323.531 223.564 329.094Z" fill="#455A64"/>
<path d="M218.404 329.094C218.404 331.625 216.481 333.673 214.103 333.673C211.726 333.673 209.803 331.625 209.803 329.094C209.803 326.564 211.726 324.516 214.103 324.516C216.481 324.516 218.404 326.564 218.404 329.094Z" fill="#CDCDCD"/>
<path d="M278.589 326.109C278.727 327.172 277.953 328.179 276.886 328.179H271.726V331.841H249.365C249.365 331.841 249.365 330.028 249.365 329.094C249.365 320.506 255.919 313.528 263.986 313.528H264.381C264.536 313.51 264.674 313.528 264.846 313.528C268.974 313.528 272.896 314.462 275.751 315.396C276.611 317.209 276.99 319.132 277.437 320.854C277.437 320.854 278.572 325.963 278.589 326.109Z" fill="#979799"/>
<path d="M273.446 329.094C273.446 334.658 269.211 339.167 263.986 339.167C258.76 339.167 254.525 334.658 254.525 329.094C254.525 323.531 258.76 319.022 263.986 319.022C269.211 319.022 273.446 323.531 273.446 329.094Z" fill="#455A64"/>
<path d="M268.286 329.094C268.286 331.625 266.363 333.673 263.986 333.673C261.609 333.673 259.686 331.625 259.686 329.094C259.686 326.564 261.609 324.516 263.986 324.516C266.363 324.516 268.286 326.564 268.286 329.094Z" fill="#CDCDCD"/>
<path d="M225.121 298.955C218.423 299.499 213.785 302.896 211.714 307.192C211.578 307.474 211.518 307.769 211.523 308.057C211.539 309.007 212.263 309.866 213.252 309.866H225.284C226.234 309.866 227.004 309.045 227.004 308.035V300.784C227.004 299.708 226.129 298.873 225.121 298.955ZM242.879 298.878H232.164C231.215 298.878 230.444 299.698 230.444 300.709V308.035C230.444 309.045 231.215 309.866 232.164 309.866H249.883C251.312 309.866 252.117 308.119 251.243 306.914C249.124 303.995 247.033 301.112 247.005 301.074C246.037 299.698 244.494 298.878 242.879 298.878Z" fill="#E4F5FC"/>
<g clip-path="url(#clip0_18_83)">
<path d="M284.687 280.966C285.046 300.925 272.321 309.184 269.048 310.975C268.567 311.238 267.993 311.263 267.493 311.041C264.144 309.551 251.395 302.456 251.891 280.966L251.892 280.966C255.998 280.292 258.996 276.861 258.979 272.855L258.979 272.713H277.599L277.598 272.855C277.582 276.862 280.58 280.293 284.687 280.966V280.966Z" fill="#CD4A3F"/>
<path d="M274.55 303.98C271.201 302.49 258.453 295.396 258.949 273.906L258.979 272.713L258.979 272.855C258.996 276.861 255.998 280.292 251.892 280.966L251.891 280.966C251.395 302.456 264.144 309.551 267.493 311.041C267.993 311.263 268.567 311.238 269.048 310.975C270.728 310.055 274.9 307.43 278.513 302.394C277.508 303.109 276.667 303.607 276.105 303.915C275.625 304.178 275.051 304.203 274.55 303.98C275.051 304.203 271.201 302.49 274.55 303.98Z" fill="#A8514A"/>
<path d="M266.919 312.331C254.952 306.723 250.192 293.419 250.48 280.934C250.495 280.288 250.945 279.736 251.574 279.59C254.949 278.81 257.593 276.378 257.567 272.719C257.564 271.947 258.207 271.301 258.979 271.301H277.599C278.37 271.301 279.013 271.947 279.01 272.718C278.935 276.161 281.576 279.025 284.915 279.573C285.588 279.683 286.085 280.259 286.098 280.941C286.32 293.266 280.905 306.095 269.725 312.214C269.255 312.472 268.396 313.023 266.919 312.331V312.331ZM268.066 309.751C268.164 309.794 268.275 309.789 268.371 309.736C271.883 307.814 283.161 300.215 283.282 282.095C279.632 281.041 276.78 277.924 276.269 274.125H260.308C259.797 277.927 256.941 281.045 253.288 282.097C253.269 292.932 257.474 305.037 268.066 309.751C268.164 309.794 266.575 309.087 268.066 309.751V309.751Z" fill="#939393"/>
<path d="M268.286 299.484C273.109 299.484 277.019 295.555 277.019 290.708C277.019 285.861 273.109 281.932 268.286 281.932C263.462 281.932 259.552 285.861 259.552 290.708C259.552 295.555 263.462 299.484 268.286 299.484Z" fill="white"/>
<path d="M265.784 294.198L263.238 291.225L265.382 289.388L266.924 291.189L271.312 286.698L273.331 288.672L267.865 294.266C267.599 294.538 266.742 295.056 265.784 294.198Z" fill="#CD4A3F"/>
</g>
<path d="M427 300C427 356.226 404.664 410.149 364.907 449.907C325.149 489.664 271.226 512 215 512C158.774 512 104.851 489.664 65.0934 449.907C25.3357 410.149 3.00001 356.226 3 300" stroke="#B3342B" stroke-width="5"/>
<path fill-rule="evenodd" clip-rule="evenodd" d="M1061.5 70.0419C1068.69 70.0419 1074.52 64.2122 1074.52 57.0209C1074.52 49.8297 1068.69 44 1061.5 44C1054.31 44 1048.48 49.8297 1048.48 57.0209C1048.48 64.2122 1054.31 70.0419 1061.5 70.0419ZM1062.71 73.9996C1071.55 73.3793 1078.52 66.0147 1078.52 57.0209C1078.52 47.6205 1070.9 40 1061.5 40C1052.1 40 1044.48 47.6205 1044.48 57.0209C1044.48 66.0166 1051.46 73.3823 1060.3 74L1060 74L1060.01 155.026C982.436 156.493 920 219.838 920 297.765C920 376.612 983.918 440.53 1062.76 440.53C1141.61 440.53 1205.53 376.612 1205.53 297.765C1205.53 219.334 1142.29 155.676 1064.01 155.005L1064 73.9994L1062.71 73.9996ZM1062.76 420.53C1130.57 420.53 1185.53 365.566 1185.53 297.765C1185.53 229.964 1130.57 175 1062.76 175C994.964 175 940 229.964 940 297.765C940 365.566 994.964 420.53 1062.76 420.53Z" fill="#B3342B"/>
<path d="M1080.26 294.366L1112.43 275.235C1114.17 273.986 1116.3 273.437 1118.42 273.699C1120.54 273.96 1122.48 275.012 1123.86 276.644C1124.54 277.515 1125.03 278.515 1125.31 279.582C1125.59 280.65 1125.65 281.763 1125.48 282.854C1125.32 283.945 1124.94 284.991 1124.36 285.929C1123.78 286.868 1123.01 287.678 1122.11 288.312L1087.33 309.992L1080.26 294.366Z" fill="#FFC4B4"/>
<path d="M1121.02 288.424C1119.65 286.792 1117.7 285.74 1115.58 285.479C1113.47 285.218 1111.33 285.766 1109.59 287.016L1085.51 302.012C1085.53 300.098 1084.86 298.241 1083.64 296.769C1082.41 295.297 1080.71 294.306 1078.83 293.97L1051.46 289.273C1047.74 288.636 1043.91 288.984 1040.36 290.283C1036.81 291.582 1033.66 293.786 1031.23 296.678L1013.04 318.26L1037.9 339.212L1043.49 332.581C1044.48 331.41 1045.7 330.461 1047.08 329.797C1048.46 329.132 1049.96 328.767 1051.49 328.725L1075.99 328.075C1078.11 328.029 1080.18 327.351 1081.92 326.126L1119.27 300.092C1120.17 299.458 1120.94 298.648 1121.52 297.709C1122.1 296.771 1122.48 295.725 1122.64 294.634C1122.81 293.543 1122.75 292.43 1122.47 291.362C1122.19 290.295 1121.7 289.295 1121.02 288.424Z" fill="#FFD3C8"/>
<path d="M1010.97 316.514L997 333.09L1026.01 357.534L1039.98 340.958L1037.9 339.212L1013.04 318.26L1010.97 316.514Z" fill="#737575"/>
<path d="M1094.65 258.409L1093.37 259.688L1070.45 282.611L1047.52 259.688L1046.24 258.409C1044.69 256.916 1043.44 255.127 1042.59 253.147C1041.73 251.167 1041.28 249.036 1041.25 246.878C1041.23 244.721 1041.64 242.581 1042.46 240.583C1043.27 238.586 1044.48 236.772 1046 235.247C1047.53 233.722 1049.35 232.517 1051.34 231.703C1053.34 230.888 1055.48 230.481 1057.64 230.505C1059.8 230.529 1061.93 230.984 1063.91 231.842C1065.89 232.701 1067.68 233.945 1069.17 235.504L1070.45 236.782L1071.72 235.504C1073.22 233.945 1075 232.701 1076.98 231.842C1078.96 230.984 1081.09 230.529 1083.25 230.505C1085.41 230.481 1087.55 230.888 1089.55 231.703C1091.54 232.517 1093.36 233.722 1094.89 235.247C1096.41 236.772 1097.62 238.586 1098.43 240.583C1099.25 242.581 1099.66 244.721 1099.64 246.878C1099.61 249.036 1099.16 251.167 1098.31 253.147C1097.45 255.127 1096.2 256.916 1094.65 258.409Z" fill="#D04B42"/>
<path d="M1094.65 235.504C1092.93 233.772 1090.85 232.454 1088.55 231.65C1086.25 230.845 1083.8 230.575 1081.38 230.86C1084.41 231.196 1087.29 232.382 1089.68 234.281C1092.06 236.181 1093.87 238.716 1094.88 241.595C1095.89 244.475 1096.06 247.581 1095.39 250.556C1094.71 253.531 1093.2 256.254 1091.05 258.411L1089.77 259.69L1068.64 280.81L1070.45 282.611L1093.37 259.688L1094.65 258.409C1097.68 255.371 1099.39 251.251 1099.39 246.957C1099.39 242.662 1097.68 238.543 1094.65 235.504V235.504Z" fill="#A8514A"/>
<path d="M1074.05 264.604V257.401H1081.25V250.198H1074.05V242.995H1066.84V250.198H1059.64V257.401H1066.84V264.604H1074.05Z" fill="white"/>
<path d="M1079.46 305.845L1059.15 301.842C1058.56 301.738 1057.96 301.862 1057.46 302.189C1056.96 302.517 1056.6 303.023 1056.46 303.604C1056.38 303.915 1056.37 304.238 1056.43 304.554C1056.48 304.869 1056.6 305.169 1056.78 305.437C1056.95 305.705 1057.18 305.934 1057.45 306.11C1057.71 306.286 1058.01 306.406 1058.33 306.462L1075.97 309.989C1077.84 310.32 1079.77 309.984 1081.43 309.038C1083.08 308.092 1084.34 306.598 1085 304.814C1083.34 305.815 1081.37 306.181 1079.46 305.845V305.845Z" fill="#FFC4B4"/>
<path d="M1275 300C1275 356.226 1252.66 410.149 1212.91 449.907C1173.15 489.664 1119.23 512 1063 512C1006.77 512 952.851 489.664 913.093 449.907C873.336 410.149 851 356.226 851 300" stroke="#B3342B" stroke-width="5"/>
<path fill-rule="evenodd" clip-rule="evenodd" d="M633.325 73.7471C641.575 73.7471 648.246 67.0786 648.246 58.8735C648.246 50.6685 641.575 44 633.325 44C625.075 44 618.404 50.6685 618.404 58.8735C618.404 67.0786 625.075 73.7471 633.325 73.7471ZM635.001 77.6741C644.665 76.8279 652.246 68.7337 652.246 58.8735C652.246 48.45 643.774 40 633.325 40C622.875 40 614.404 48.45 614.404 58.8735C614.404 68.5123 621.648 76.4634 631.001 77.6061L631.048 219.732C554.851 222.725 494 285.288 494 362.029C494 440.68 557.918 504.439 636.765 504.439C715.612 504.439 779.53 440.68 779.53 362.029C779.53 283.378 715.612 219.62 636.765 219.62C636.192 219.62 635.62 219.623 635.048 219.63L635.001 77.6741ZM636.765 484.439C704.613 484.439 759.53 429.587 759.53 362.029C759.53 294.471 704.613 239.62 636.765 239.62C568.917 239.62 514 294.471 514 362.029C514 429.587 568.917 484.439 636.765 484.439Z" fill="#59595B"/>
<path d="M683.422 412.108H581.508V417.756C581.508 420.876 584.042 423.404 587.17 423.404H677.76C680.888 423.404 683.422 420.876 683.422 417.756V412.108Z" fill="url(#paint4_linear_18_83)"/>
<path d="M683.422 412.108H581.508V358.454L632.465 310.448L683.422 358.454V412.108Z" fill="url(#paint5_linear_18_83)"/>
<path d="M601.325 372.574H629.634C631.197 372.574 632.465 373.839 632.465 375.398V423.404H598.494V375.398C598.494 373.839 599.762 372.574 601.325 372.574Z" fill="#DE490D"/>
<path opacity="0.05" d="M632.465 313.272C631.123 313.272 629.781 313.747 628.711 314.693L613.54 328.278L581.508 358.454V373.675L632.465 328.6L683.422 373.675V358.454L651.39 328.278L636.219 314.693C635.149 313.747 633.807 313.272 632.465 313.272Z" fill="black"/>
<path opacity="0.07" d="M632.465 310.448C631.123 310.448 629.781 310.92 628.711 311.86L613.54 325.37L581.508 355.374V370.507L632.465 325.689L683.422 370.507V355.374L651.39 325.37L636.219 311.86C635.149 310.92 633.807 310.448 632.465 310.448Z" fill="black"/>
<path d="M690.485 357.062L636.219 309.045C635.149 308.099 633.807 307.625 632.465 307.625C631.123 307.625 629.781 308.099 628.711 309.045L574.445 357.062C573.256 358.118 573.174 359.943 574.264 361.1L578.895 366.028C579.94 367.141 581.681 367.225 582.83 366.217L632.465 322.953L682.1 366.22C683.246 367.225 684.99 367.144 686.035 366.031L690.666 361.103C691.756 359.943 691.674 358.118 690.485 357.062Z" fill="url(#paint6_linear_18_83)"/>
<path d="M646.619 372.574H663.605C665.168 372.574 666.436 373.839 666.436 375.398V392.341C666.436 393.9 665.168 395.165 663.605 395.165H646.619C645.057 395.165 643.789 393.9 643.789 392.341V375.398C643.789 373.839 645.057 372.574 646.619 372.574Z" fill="url(#paint7_linear_18_83)"/>
<g clip-path="url(#clip1_18_83)">
<path d="M709.35 382.01C709.905 412.641 690.288 425.315 685.241 428.064C684.5 428.468 683.615 428.507 682.844 428.165C677.681 425.878 658.027 414.99 658.791 382.01L658.792 382.01C665.123 380.976 669.745 375.71 669.719 369.561L669.718 369.343H698.423L698.422 369.562C698.397 375.711 703.019 380.976 709.35 382.01V382.01Z" fill="#CD4A3F"/>
<path d="M693.724 417.329C688.561 415.043 668.907 404.154 669.671 371.175L669.718 369.343L669.719 369.561C669.745 375.71 665.123 380.976 658.792 382.01L658.791 382.01C658.027 414.99 677.681 425.878 682.844 428.165C683.615 428.506 684.5 428.468 685.241 428.064C687.832 426.653 694.263 422.624 699.833 414.894C698.284 415.992 696.988 416.757 696.121 417.229C695.38 417.632 694.495 417.671 693.724 417.329C694.495 417.671 688.561 415.042 693.724 417.329Z" fill="#A8514A"/>
<path d="M681.959 430.145C663.51 421.538 656.172 401.121 656.616 381.96C656.639 380.97 657.333 380.121 658.302 379.898C663.506 378.701 667.582 374.968 667.542 369.352C667.537 368.168 668.529 367.176 669.718 367.176H698.423C699.613 367.176 700.604 368.167 700.599 369.352C700.484 374.635 704.556 379.031 709.702 379.871C710.74 380.041 711.507 380.924 711.526 381.971C711.868 400.885 703.52 420.575 686.286 429.965C685.56 430.361 684.236 431.207 681.959 430.145V430.145ZM683.728 426.185C683.878 426.251 684.049 426.243 684.197 426.163C689.612 423.213 706.998 411.55 707.185 383.741C701.559 382.125 697.162 377.341 696.374 371.511H671.767C670.979 377.346 666.577 382.131 660.946 383.745C660.915 400.373 667.398 418.951 683.728 426.185C683.878 426.251 681.43 425.167 683.728 426.185V426.185Z" fill="#939393"/>
<path d="M684.066 410.429C691.502 410.429 697.53 404.399 697.53 396.96C697.53 389.522 691.502 383.492 684.066 383.492C676.63 383.492 670.602 389.522 670.602 396.96C670.602 404.399 676.63 410.429 684.066 410.429Z" fill="white"/>
<path d="M680.209 402.316L676.285 397.754L679.589 394.934L681.967 397.698L688.732 390.807L691.844 393.836L683.418 402.42C683.008 402.838 681.686 403.633 680.209 402.316Z" fill="#CD4A3F"/>
</g>
<path d="M427 302C427 252.67 449.336 205.36 489.093 170.478C528.851 135.596 582.774 116 639 116C695.226 116 749.149 135.596 788.907 170.478C828.664 205.36 851 252.67 851 302" stroke="#59595B" stroke-width="5"/>
<defs>
<linearGradient id="paint0_linear_18_83" x1="153.041" y1="324.444" x2="225.284" y2="324.444" gradientUnits="userSpaceOnUse">
<stop stop-color="#C8D3DE"/>
<stop offset="1" stop-color="#C8D3DE"/>
</linearGradient>
<linearGradient id="paint1_linear_18_83" x1="169.285" y1="262.788" x2="204.094" y2="329.991" gradientUnits="userSpaceOnUse">
<stop stop-color="#FCFCFC"/>
<stop offset="0.495" stop-color="#F4F4F4"/>
<stop offset="0.946" stop-color="#E8E8E8"/>
<stop offset="1" stop-color="#E8E8E8"/>
</linearGradient>
<linearGradient id="paint2_linear_18_83" x1="189.162" y1="245.386" x2="189.162" y2="289.649" gradientUnits="userSpaceOnUse">
<stop stop-color="#D43A02"/>
<stop offset="1" stop-color="#B9360C"/>
</linearGradient>
<linearGradient id="paint3_linear_18_83" x1="197.29" y1="292.372" x2="212.5" y2="307.551" gradientUnits="userSpaceOnUse">
<stop stop-color="#33BEF0"/>
<stop offset="1" stop-color="#0A85D9"/>
</linearGradient>
<linearGradient id="paint4_linear_18_83" x1="581.508" y1="417.756" x2="683.422" y2="417.756" gradientUnits="userSpaceOnUse">
<stop stop-color="#C8D3DE"/>
<stop offset="1" stop-color="#C8D3DE"/>
</linearGradient>
<linearGradient id="paint5_linear_18_83" x1="604.424" y1="331.17" x2="653.179" y2="425.725" gradientUnits="userSpaceOnUse">
<stop stop-color="#FCFCFC"/>
<stop offset="0.495" stop-color="#F4F4F4"/>
<stop offset="0.946" stop-color="#E8E8E8"/>
<stop offset="1" stop-color="#E8E8E8"/>
</linearGradient>
<linearGradient id="paint6_linear_18_83" x1="632.465" y1="306.732" x2="632.465" y2="368.892" gradientUnits="userSpaceOnUse">
<stop stop-color="#D43A02"/>
<stop offset="1" stop-color="#B9360C"/>
</linearGradient>
<linearGradient id="paint7_linear_18_83" x1="643.93" y1="372.715" x2="665.29" y2="394.128" gradientUnits="userSpaceOnUse">
<stop stop-color="#33BEF0"/>
<stop offset="1" stop-color="#0A85D9"/>
</linearGradient>
<clipPath id="clip0_18_83">
<rect width="41.2819" height="41.3659" fill="white" transform="translate(247.645 271.301)"/>
</clipPath>
<clipPath id="clip1_18_83">
<rect width="63.6422" height="63.4838" fill="white" transform="translate(652.246 367.176)"/>
</clipPath>
</defs>
</svg>
